<svg width="672" height="670" viewBox="0 0 672 670" fill="none" xmlns="http://www.w3.org/2000/svg">
<path d="M611.699 375.921L671.366 363.897L664.2 386.179L609.512 394.922L611.768 387.365L651.749 424.896L644.075 448.758L589.712 455.949L592.284 448.494L631.623 487.476L624.559 509.442L582.985 465.207L591.574 438.501L641.176 430.389L638.686 438.132L603.111 402.628L611.699 375.921ZM556.985 506.44C560.885 501.912 564.981 498.43 569.273 495.992C573.606 493.59 577.873 492.41 582.075 492.45C586.24 492.533 590.041 494.055 593.478 497.017C597.084 500.123 599.235 503.729 599.933 507.836C600.594 511.985 600.016 516.344 598.198 520.913C596.38 525.481 593.521 530.029 589.62 534.557C585.286 539.587 580.856 543.33 576.33 545.785C571.811 548.319 567.465 549.505 563.295 549.344C559.13 549.262 555.412 547.812 552.142 544.995C549.711 542.9 547.977 540.42 546.94 537.554C545.945 534.725 545.634 531.609 546.009 528.207C546.426 524.841 547.536 521.306 549.34 517.602C551.186 513.933 553.734 510.212 556.985 506.44ZM561.667 520.334C558.922 523.52 556.6 526.596 554.702 529.562C552.81 532.606 551.66 535.34 551.251 537.763C550.807 540.229 551.465 542.22 553.226 543.737C555.028 545.29 557.116 545.664 559.489 544.86C561.825 544.098 564.338 542.538 567.027 540.18C569.68 537.864 572.378 535.113 575.123 531.927C578.807 527.651 581.095 523.852 581.985 520.529C582.918 517.243 582.252 514.624 579.989 512.674C578.521 511.41 576.833 510.868 574.924 511.05C573.015 511.231 570.942 512.111 568.706 513.69C566.469 515.268 564.123 517.483 561.667 520.334ZM568.632 557.01L555.63 572.101L524.818 545.555L537.062 531.344C537.062 531.344 537.616 531.676 538.725 532.339C539.797 533.044 541.307 534.089 543.254 535.474C545.165 536.902 547.336 538.663 549.767 540.757L568.632 557.01ZM553.644 597.26L537.804 609.339L503.077 563.799L518.917 551.72L553.644 597.26ZM520.13 620.994L502.257 629.791L476.966 578.409L494.838 569.611L520.13 620.994ZM449.65 637.184L469.059 602.19L473.452 612.054L429.157 601.941L451.795 590.798L486.894 599.332L473.331 625.528L449.65 637.184ZM420.013 669.273L416.782 657.249L437.141 651.778L440.372 663.801L420.013 669.273ZM434.275 643.352L415.038 648.522L404.483 609.245L423.72 604.076L434.275 643.352ZM398.002 652.035L378.119 653.239L375.661 612.643L395.545 611.44L398.002 652.035ZM348.368 656.287C345.11 656.484 341.94 656.316 338.858 655.782C335.781 655.303 333.004 654.307 330.529 652.794C327.998 651.284 325.928 649.136 324.318 646.351C322.708 643.566 321.771 639.992 321.507 635.628L320.318 615.993L340.202 614.79L341.24 631.939C341.491 636.082 342.745 638.944 345.003 640.526C347.264 642.163 351.211 642.811 356.845 642.47C359.827 642.289 362.707 641.782 365.484 640.949C368.205 640.119 370.642 639.168 372.795 638.095C374.951 637.077 376.637 636.088 377.854 635.128L378.21 638.266C378.049 639.274 377.387 640.699 376.224 642.544C375.009 644.447 373.213 646.385 370.838 648.358C368.463 650.331 365.436 652.066 361.757 653.564C358.023 655.065 353.56 655.973 348.368 656.287ZM281.015 614.575C288.681 616.298 294.858 618.338 299.546 620.696C304.221 623.108 307.462 625.85 309.267 628.921C311.06 632.047 311.519 635.553 310.645 639.44C309.832 643.057 307.968 645.927 305.052 648.051C302.124 650.228 298.033 651.521 292.781 651.928C287.474 652.323 280.907 651.641 273.079 649.882C271.513 649.53 269.921 649.172 268.301 648.808C266.682 648.444 265.089 648.086 263.523 647.734L232.589 640.781L234.883 630.577C238.428 631.204 241.955 632.167 245.463 633.466C248.905 634.807 252.04 636.249 254.869 637.792L255.487 639.207C253.227 637.905 251.151 636.417 249.259 634.744C247.312 633.059 245.852 631.228 244.879 629.251C243.905 627.274 243.68 625.125 244.201 622.804C244.954 619.456 246.758 616.856 249.613 615.002C252.402 613.191 256.393 612.216 261.584 612.079C266.71 611.983 273.187 612.815 281.015 614.575ZM268.936 587.699L268.444 589.886C268.08 591.505 268.591 592.641 269.976 593.293C271.319 593.878 273.529 594.516 276.606 595.208L299.199 600.287C303.032 601.148 306.076 602.116 308.33 603.19C310.53 604.251 312.148 605.38 313.183 606.577C314.164 607.762 314.744 608.97 314.921 610.201C315.056 611.365 315.002 612.487 314.759 613.567C314.238 615.889 312.967 617.503 310.949 618.41C308.918 619.372 306.06 619.722 302.376 619.461C298.691 619.2 294.096 618.45 288.589 617.213L281.015 614.575C285.55 615.594 288.763 616.061 290.654 615.975C292.532 615.944 293.623 615.253 293.927 613.904C294.096 613.148 293.873 612.502 293.256 611.967C292.627 611.485 291.719 611.111 290.531 610.844L266.642 605.474C261.297 604.273 257.171 602.948 254.264 601.501C251.369 599.999 249.507 598.191 248.678 596.077C247.807 593.896 247.735 591.186 248.463 587.947L249.501 583.331L268.936 587.699ZM278.631 625.183C275.068 624.382 272.146 624.009 269.865 624.063C267.518 624.16 265.749 624.584 264.559 625.338C263.369 626.091 262.64 627.062 262.373 628.249C262.07 629.599 262.295 630.869 263.048 632.059C263.802 633.249 265.197 634.357 267.236 635.382C269.274 636.407 272.101 637.327 275.718 638.14C279.281 638.94 282.23 639.32 284.565 639.277C286.9 639.235 288.689 638.843 289.934 638.102C291.178 637.361 291.952 636.315 292.255 634.966C292.522 633.778 292.279 632.589 291.525 631.399C290.718 630.197 289.274 629.05 287.194 627.958C285.102 626.921 282.248 625.996 278.631 625.183ZM194.433 571.009L181.451 630.474L163.931 614.954L177.916 561.366L183.928 566.47L133.488 587.985L114.726 571.364L130.001 518.698L135.793 524.051L84.2829 544.396L67.0114 529.095L124.229 508.817L145.228 527.419L132.71 576.096L126.621 570.703L173.434 552.406L194.433 571.009ZM36.9633 501.271L47.7203 495.003L58.3344 513.218L47.5775 519.486L36.9633 501.271ZM65.7152 508.245L55.6861 491.033L90.8255 470.557L100.855 487.768L65.7152 508.245ZM48.652 478.146L30.767 432.737L42.3509 428.175L60.2358 473.584L48.652 478.146ZM31.7756 469.271L24.4756 450.737L73.9002 431.271L81.2001 449.805L31.7756 469.271ZM59.3497 357.728L44.3847 359.787C41.9179 360.127 39.9027 360.907 38.3391 362.127C36.7756 363.348 35.7561 365.275 35.2808 367.91C34.7431 370.497 34.7872 374.066 35.4132 378.616C35.7677 381.192 36.3613 383.68 37.194 386.079C37.9644 388.43 38.8142 390.548 39.7435 392.43C40.6653 394.259 41.5343 395.703 42.3505 396.764L38.4263 397.471C37.5738 397.365 36.2386 396.795 34.4207 395.76C32.5403 394.678 30.526 393.028 28.3777 390.81C26.1745 388.6 24.1861 385.718 22.4125 382.164C20.5765 378.562 19.304 374.185 18.5951 369.033C18.1501 365.798 18.0217 362.632 18.2099 359.534C18.3981 356.437 19.0427 353.611 20.1436 351.058C21.1822 348.457 22.782 346.282 24.9431 344.533C27.1041 342.783 29.9388 341.667 33.4471 341.184L56.6346 337.994L59.3497 357.728ZM66.9066 412.655L10.171 420.461L7.45596 400.727L64.1915 392.921L66.9066 412.655ZM26.3687 209.007L56.6849 251.178L69.8146 254.44L64.8106 274.578L51.6809 271.315L5.15197 294.39L11.0566 270.628L51.0702 252.434L47.3673 267.335L20.4641 232.769L26.3687 209.007ZM96.4527 196.77C92.0307 204.376 87.7239 210.353 83.5322 214.7C79.3683 219 75.186 221.625 70.9853 222.575C66.8125 223.477 62.5016 222.635 58.0528 220.049C53.6041 217.462 50.7394 214.133 49.4589 210.06C48.1584 205.912 48.3463 200.965 50.0228 195.219C51.6792 189.397 54.7183 182.683 59.1403 175.077C63.5345 167.519 67.8235 161.628 72.0074 157.404C76.1714 153.104 80.3637 150.517 84.5843 149.643C88.7572 148.741 93.068 149.583 97.5168 152.169C101.966 154.756 104.83 158.085 106.111 162.158C107.391 166.231 107.193 171.14 105.517 176.886C103.868 182.584 100.847 189.212 96.4527 196.77ZM86.0483 190.721C88.1063 187.181 89.5436 184.049 90.3601 181.323C91.1288 178.57 91.2767 176.223 90.8039 174.284C90.2832 172.318 89.114 170.806 87.2962 169.749C85.4784 168.692 83.5861 168.424 81.6193 168.945C79.6803 169.418 77.7045 170.669 75.6921 172.699C73.6797 174.73 71.6306 177.539 69.5447 181.126C67.4867 184.666 66.0455 187.861 65.2212 190.71C64.4247 193.511 64.2729 195.919 64.7658 197.934C65.2386 199.873 66.4078 201.384 68.2734 202.469C70.0912 203.526 71.9835 203.794 73.9504 203.273C75.8694 202.725 77.849 201.412 79.8892 199.333C81.9094 197.18 83.9624 194.309 86.0483 190.721ZM171.938 106.863L157.455 120.539L129.531 90.9706L144.014 77.2937L171.938 106.863ZM143.641 104.702L146.497 107.485C147.174 108.444 147.702 109.809 148.082 111.582C148.502 113.316 148.699 115.337 148.672 117.646C148.645 119.955 148.281 122.43 147.579 125.071C146.839 127.673 145.687 130.321 144.122 133.016C142.558 135.711 140.448 138.313 137.793 140.82C135.137 143.328 132.357 145.421 129.452 147.099C126.584 148.817 123.636 149.927 120.608 150.427C117.58 150.928 114.555 150.626 111.533 149.522C108.474 148.377 105.443 146.216 102.442 143.038L89.2211 129.038L103.704 115.361L115.5 127.852C117.59 130.065 119.566 131.433 121.43 131.956C123.334 132.441 125.319 132.165 127.384 131.128C129.411 130.051 131.692 128.316 134.226 125.922C136.6 123.681 138.47 121.268 139.835 118.685C141.203 116.023 142.176 113.468 142.755 111.018C143.375 108.531 143.67 106.425 143.641 104.702ZM181.832 37.4617L200.545 28.496L223.497 76.4015L204.784 85.3672L181.832 37.4617ZM223.839 32.3433L243.207 27.6851L252.717 67.2275L233.349 71.8857L223.839 32.3433ZM271.967 19.4874C275.141 18.7239 278.292 18.3361 281.419 18.3238C284.533 18.2577 287.441 18.7535 290.143 19.8111C292.898 20.8557 295.312 22.6086 297.383 25.0697C299.455 27.5309 301.002 30.8865 302.024 35.1366L306.624 54.2622L287.256 58.9204L283.239 42.2158C282.268 38.1808 280.533 35.5818 278.034 34.4187C275.522 33.2017 271.522 33.2532 266.034 34.573C263.129 35.2717 260.382 36.2738 257.794 37.5793C255.259 38.8719 253.026 40.2342 251.094 41.6664C249.149 43.0448 247.661 44.3131 246.631 45.4715L245.732 42.4438C245.714 41.4237 246.117 39.904 246.94 37.8848C247.805 35.7989 249.234 33.5771 251.228 31.2195C253.222 28.8618 255.899 26.6244 259.26 24.5071C262.674 22.3769 266.91 20.7037 271.967 19.4874ZM410.112 11.3928C417.445 12.8169 423.365 14.6993 427.87 17.0399C432.376 19.3804 435.75 22.0366 437.991 25.0084C440.232 27.9802 441.59 31.1468 442.064 34.5083C442.604 37.8259 442.541 41.1958 441.877 44.6179C441.212 48.0399 439.949 51.2049 438.088 54.1127C436.237 56.9663 433.635 59.3357 430.282 61.2209C426.983 63.1167 422.833 64.3118 417.833 64.8063C412.887 65.3114 406.938 64.8888 399.985 63.5385L341.321 52.1456L351.448 -0.00013945L410.112 11.3928ZM364.855 39.8059L402.335 47.0847C405.377 47.6755 407.994 47.9865 410.186 48.0176C412.389 47.9945 414.194 47.6969 415.602 47.1247C417.064 46.5631 418.182 45.7375 418.958 44.648C419.798 43.5147 420.376 42.1333 420.692 40.5038C421.009 38.8742 420.984 37.4039 420.619 36.0929C420.319 34.7381 419.596 33.5267 418.45 32.4587C417.359 31.4013 415.791 30.4768 413.747 29.6852C411.713 28.8392 409.175 28.1208 406.133 27.5301L368.653 20.2513L364.855 39.8059ZM497.662 86.6288L514.656 96.3696C512.628 98.9063 509.846 100.533 506.311 101.249C502.823 101.992 498.517 101.66 493.392 100.254C488.342 98.8262 482.385 96.1451 475.52 92.2102C468.271 88.0553 462.337 83.8883 457.716 79.7093C453.144 75.5579 450.226 71.3022 448.962 66.9424C447.698 62.5825 448.401 58.0743 451.07 53.4177C453.711 48.8091 457.184 45.9208 461.489 44.7528C465.87 43.5644 471.02 43.8698 476.941 45.6689C482.861 47.468 489.542 50.5001 496.983 54.7652C504.28 58.9477 509.885 63.0216 513.799 66.9868C517.713 70.9521 519.934 75.0318 520.464 79.226C521.022 83.3721 519.835 87.89 516.905 92.7796L467.938 64.7129C467.463 66.0986 467.475 67.636 467.973 69.325C468.52 71.0416 469.777 72.91 471.744 74.9304C473.787 76.9303 476.8 79.0722 480.785 81.3561C484.914 83.7225 488.463 85.3744 491.434 86.3117C494.452 87.2765 496.528 87.3822 497.662 86.6288ZM490.278 64.7938C485.189 61.8771 480.984 60.2003 477.663 59.7636C474.39 59.3543 472.197 59.5642 471.084 60.3932L502.768 78.554C503.148 77.1132 502.45 75.2146 500.676 72.8582C498.929 70.4537 495.463 67.7656 490.278 64.7938ZM540.723 83.1176L554.525 97.4815L525.199 125.66L511.397 111.296L540.723 83.1176ZM576.125 118.165C578.387 120.519 580.313 123.042 581.903 125.735C583.533 128.39 584.573 131.15 585.025 134.016C585.515 136.921 585.221 139.89 584.143 142.921C583.065 145.952 580.95 148.981 577.798 152.01L563.613 165.639L549.812 151.275L562.201 139.371C565.193 136.496 566.56 133.686 566.302 130.942C566.083 128.159 564.019 124.732 560.109 120.663C558.038 118.508 555.786 116.643 553.352 115.069C550.956 113.534 548.653 112.294 546.441 111.35C544.269 110.367 542.423 109.724 540.903 109.419L543.062 107.115C543.934 106.584 545.449 106.164 547.607 105.855C549.844 105.548 552.483 105.659 555.525 106.189C558.567 106.72 561.85 107.9 565.375 109.732C568.938 111.603 572.521 114.414 576.125 118.165ZM632.786 156.527L622.271 163.192L610.984 145.387L621.499 138.721L632.786 156.527ZM603.794 150.632L614.459 167.457L580.109 189.231L569.444 172.407L603.794 150.632ZM622.951 183.782L628.543 202.901L589.508 214.319L583.916 195.2L622.951 183.782ZM638.126 231.23C639.042 234.364 639.583 237.492 639.747 240.615C639.964 243.722 639.609 246.651 638.684 249.4C637.774 252.203 636.141 254.699 633.783 256.887C631.425 259.076 628.148 260.784 623.953 262.011L605.073 267.533L599.481 248.414L615.971 243.591C619.954 242.426 622.466 240.567 623.506 238.014C624.6 235.446 624.355 231.453 622.77 226.036C621.931 223.168 620.797 220.473 619.368 217.951C617.954 215.482 616.485 213.318 614.961 211.457C613.489 209.582 612.15 208.157 610.943 207.184L613.924 206.139C614.942 206.072 616.48 206.401 618.536 207.125C620.662 207.887 622.95 209.207 625.402 211.084C627.853 212.962 630.218 215.527 632.496 218.781C634.789 222.088 636.666 226.238 638.126 231.23ZM653.411 283.489C654.327 286.622 654.868 289.75 655.031 292.873C655.248 295.981 654.894 298.909 653.969 301.659C653.059 304.462 651.426 306.957 649.068 309.146C646.71 311.334 643.433 313.042 639.238 314.269L620.358 319.792L614.766 300.673L631.256 295.849C635.239 294.684 637.751 292.826 638.791 290.273C639.885 287.704 639.64 283.712 638.055 278.295C637.216 275.427 636.082 272.732 634.653 270.21C633.239 267.741 631.77 265.576 630.246 263.716C628.774 261.84 627.435 260.416 626.228 259.443L630.006 258.165C630.864 258.144 632.292 258.592 634.289 259.506C636.287 260.421 638.5 261.878 640.929 263.877C643.374 265.929 645.728 268.556 647.99 271.757C650.268 275.011 652.075 278.922 653.411 283.489Z" fill="#0044D7"/>
</svg>
