<svg width="934" height="925" viewBox="0 0 934 925" fill="none" xmlns="http://www.w3.org/2000/svg">
<path d="M212.094 645.677L216.732 647.042C215.532 651.273 215.408 655.581 216.361 659.963C217.251 664.34 219.179 668.288 222.146 671.806C226.965 677.52 233.098 680.693 240.548 681.327C247.997 681.96 254.578 679.867 260.292 675.049C266.005 670.231 269.179 664.097 269.812 656.648C270.445 649.198 268.353 642.617 263.535 636.904C260.567 633.385 257.002 630.818 252.838 629.203C248.644 627.552 244.361 626.962 239.987 627.431L239.626 622.549C244.781 622.017 249.815 622.72 254.728 624.658C259.641 626.595 263.83 629.62 267.297 633.731C270.088 637.04 272.117 640.754 273.384 644.872C274.622 648.955 275.069 653.02 274.725 657.065C274.381 661.111 273.254 665.042 271.345 668.858C269.401 672.703 266.775 676.021 263.465 678.812C260.155 681.603 256.459 683.617 252.376 684.855C248.258 686.122 244.176 686.583 240.13 686.239C236.084 685.895 232.154 684.769 228.338 682.86C224.493 680.916 221.175 678.289 218.384 674.979C214.888 670.834 212.617 666.161 211.571 660.963C210.49 655.793 210.665 650.698 212.094 645.677ZM202.565 643.072L207.247 644.489C205.658 650.24 205.5 656.097 206.772 662.058C207.98 668.015 210.596 673.38 214.621 678.152C218.94 683.274 224.193 686.922 230.379 689.097C236.53 691.302 242.838 691.854 249.303 690.754C255.738 689.62 261.517 686.893 266.638 682.574C271.759 678.255 275.422 673.02 277.627 666.869C279.802 660.683 280.34 654.357 279.24 647.892C278.105 641.457 275.379 635.679 271.06 630.558C267.035 625.785 262.174 622.283 256.478 620.052C250.781 617.822 244.947 617.018 238.976 617.643L238.518 612.753C245.306 612.036 251.923 612.954 258.368 615.507C264.784 618.025 270.269 621.985 274.822 627.385C279.699 633.168 282.781 639.72 284.066 647.041C285.352 654.363 284.744 661.523 282.24 668.522C279.737 675.522 275.594 681.46 269.811 686.337C264.028 691.214 257.475 694.295 250.154 695.581C242.833 696.867 235.672 696.258 228.673 693.755C221.674 691.252 215.736 687.109 210.859 681.325C206.305 675.925 203.328 669.851 201.929 663.102C200.501 656.318 200.713 649.642 202.565 643.072ZM193.096 640.327L197.778 641.744C195.732 649.073 195.519 656.526 197.139 664.102C198.694 671.672 202.013 678.471 207.096 684.498C211.18 689.341 216.028 693.181 221.64 696.019C227.253 698.857 233.013 700.527 238.921 701.03C244.765 701.526 250.693 700.85 256.704 699C262.715 697.15 268.141 694.183 272.984 690.099C277.826 686.016 281.667 681.168 284.505 675.555C287.343 669.943 289.028 664.2 289.559 658.326C290.027 652.448 289.335 646.503 287.485 640.492C285.636 634.481 282.669 629.054 278.585 624.212C273.473 618.15 267.317 613.713 260.118 610.902C252.918 608.091 245.534 607.075 237.964 607.854L237.655 602.928C246.006 602.086 254.156 603.231 262.104 606.365C269.988 609.493 276.736 614.384 282.348 621.039C288.37 628.18 292.178 636.266 293.772 645.295C295.33 654.354 294.577 663.216 291.512 671.882C288.417 680.512 283.299 687.839 276.157 693.862C269.015 699.885 260.929 703.693 251.9 705.286C242.841 706.845 233.997 706.077 225.366 702.982C216.7 699.917 209.356 694.813 203.333 687.671C197.693 680.982 194.016 673.442 192.304 665.049C190.557 656.686 190.821 648.445 193.096 640.327ZM183.61 637.774L188.293 639.191C185.824 648.069 185.559 657.086 187.497 666.241C189.406 675.362 193.431 683.563 199.571 690.844C204.507 696.697 210.386 701.337 217.21 704.763C223.97 708.184 230.914 710.197 238.042 710.803C245.17 711.409 252.386 710.599 259.691 708.374C266.931 706.144 273.477 702.56 279.33 697.625C285.183 692.689 289.837 686.826 293.292 680.037C296.684 673.243 298.682 666.282 299.288 659.154C299.894 652.025 299.099 644.826 296.904 637.557C294.644 630.282 291.046 623.718 286.11 617.866C279.97 610.584 272.534 605.23 263.802 601.804C255.07 598.377 246.12 597.131 236.953 598.066L236.696 593.096C246.61 592.128 256.293 593.501 265.744 597.215C275.161 600.958 283.203 606.784 289.873 614.693C295.249 621.068 299.136 628.222 301.534 636.156C303.938 644.025 304.827 651.83 304.201 659.571C303.511 667.307 301.332 674.867 297.664 682.253C293.932 689.632 288.878 696.011 282.503 701.387C276.127 706.764 269.005 710.654 261.136 713.057C253.203 715.455 245.383 716.327 237.677 715.671C229.906 715.011 222.346 712.832 214.995 709.135C207.58 705.432 201.185 700.393 195.808 694.017C189.11 686.074 184.728 677.131 182.662 667.189C180.597 657.246 180.913 647.441 183.61 637.774ZM118.224 510.083L116.96 505.326L226.37 476.266L227.633 481.023L118.224 510.083ZM146.021 614.736L144.757 609.979L254.167 580.918L255.43 585.675L146.021 614.736ZM120.751 519.597L119.487 514.84L228.897 485.78L230.16 490.537L120.751 519.597ZM123.278 529.111L122.014 524.354L231.424 495.294L232.687 500.05L123.278 529.111ZM125.805 538.625L124.541 533.868L233.951 504.807L235.214 509.564L192.336 520.953L203.707 563.766L246.586 552.377L247.849 557.134L138.44 586.194L137.176 581.437L179.923 570.083L168.551 527.271L125.805 538.625ZM140.967 595.708L139.703 590.951L249.113 561.891L250.376 566.648L140.967 595.708ZM143.494 605.222L142.23 600.465L251.64 571.404L252.903 576.161L143.494 605.222ZM187.579 522.217L182.822 523.48L194.194 566.293L198.95 565.029L187.579 522.217ZM178.065 524.744L173.308 526.007L184.68 568.82L189.437 567.556L178.065 524.744ZM174.768 433.058L179.37 403.749C180.07 399.292 179.22 395.306 176.819 391.792C174.426 388.233 170.572 386.037 165.26 385.203C161.343 384.588 157.577 385.657 153.962 388.411C150.301 391.158 148.146 394.602 147.495 398.744L140.942 440.479L228.464 454.221L227.7 459.083L135.317 444.577L142.633 397.98C143.495 392.488 146.304 387.97 151.058 384.426C155.767 380.875 160.756 379.513 166.023 380.34C172.506 381.358 177.388 384.201 180.669 388.868C183.95 393.535 185.138 398.749 184.233 404.512L179.631 433.821L174.768 433.058ZM184.493 434.584L189.095 405.276C190.198 398.252 188.691 391.834 184.576 386.021C180.415 380.201 174.485 376.687 166.787 375.478C160.169 374.439 153.954 376.116 148.144 380.509C142.296 384.849 138.838 390.419 137.771 397.217L129.691 448.676L226.937 463.945L226.173 468.808L124.065 452.775L132.908 396.454C133.75 391.096 135.911 386.292 139.392 382.041C142.881 377.745 147.163 374.565 152.238 372.502C157.269 370.432 162.373 369.803 167.55 370.616C176.42 372.008 183.374 376.191 188.415 383.164C193.418 390.085 195.265 397.71 193.957 406.039L189.355 435.348L184.493 434.584ZM194.218 436.111L198.82 406.802C199.809 400.5 199.175 394.403 196.917 388.513C194.659 382.622 191.015 377.622 185.987 373.511C180.913 369.392 175.022 366.807 168.314 365.753C162.236 364.799 156.286 365.526 150.465 367.933C144.605 370.288 139.65 373.939 135.598 378.885C131.546 383.83 129.029 389.432 128.046 395.69L118.439 456.874L225.41 473.67L224.647 478.532L112.814 460.973L123.184 394.927C124.294 387.858 127.16 381.504 131.782 375.864C136.359 370.216 141.995 366.05 148.691 363.364C155.349 360.627 162.144 359.803 169.077 360.891C177.091 362.149 183.865 364.989 189.398 369.41C194.939 373.786 198.957 379.191 201.453 385.626L240.297 378.855L239.491 383.987L203.028 390.579C203.465 392.493 203.745 393.944 203.867 394.932L238.728 388.85L237.922 393.982L204.251 399.974C204.278 400.394 204.209 401.859 204.045 404.371L237.159 398.844L236.353 403.977L203.396 409.389L202.706 413.779L235.589 408.839L234.783 413.972L201.89 418.979L199.08 436.875L194.218 436.111ZM229.991 444.496L229.227 449.358L146.568 436.38L152.358 399.507C152.831 396.491 154.273 394.065 156.683 392.229C159.056 390.341 161.66 389.62 164.496 390.065C172.33 391.295 175.667 395.602 174.508 402.985L169.906 432.294L165.044 431.531L169.646 402.222C169.95 400.286 169.691 398.7 168.871 397.464C168.012 396.176 166.299 395.33 163.733 394.927C162.157 394.68 160.756 395.083 159.53 396.136C158.266 397.137 157.496 398.515 157.22 400.271L152.194 432.281L229.991 444.496ZM194.244 316.269C195.796 323.582 199.705 329.276 205.971 333.349C212.237 337.422 219.027 338.683 226.341 337.132C233.654 335.581 239.348 331.672 243.421 325.406C247.494 319.139 248.755 312.349 247.204 305.036C245.653 297.722 241.744 292.029 235.478 287.956C229.211 283.882 222.421 282.621 215.108 284.173C207.794 285.724 202.101 289.633 198.028 295.899C193.954 302.165 192.693 308.955 194.244 316.269ZM215.098 342.136C210.855 341.389 206.919 339.835 203.289 337.476C199.659 335.116 196.66 332.162 194.293 328.612C191.888 325.037 190.264 321.264 189.421 317.292C188.579 313.32 188.519 309.231 189.241 305.026C189.988 300.783 191.541 296.847 193.901 293.217C196.26 289.587 199.215 286.588 202.765 284.221C206.339 281.816 210.113 280.192 214.085 279.349C218.057 278.507 222.164 278.459 226.408 279.206C230.613 279.929 234.53 281.469 238.16 283.829C241.79 286.188 244.808 289.156 247.213 292.73C249.58 296.28 251.185 300.041 252.027 304.013C252.87 307.985 252.917 312.092 252.17 316.336C251.448 320.541 249.907 324.458 247.548 328.088C245.188 331.718 242.221 334.736 238.647 337.141C235.097 339.508 231.336 341.113 227.364 341.955C223.392 342.798 219.303 342.858 215.098 342.136ZM187.756 327.379C190.706 333.21 194.989 337.951 200.606 341.602C206.223 345.254 212.295 347.243 218.821 347.572C225.372 347.863 231.582 346.545 237.451 343.62C243.282 340.671 248.023 336.387 251.674 330.77C255.325 325.154 257.315 319.082 257.644 312.556C257.935 306.005 256.605 299.813 253.655 293.983C250.73 288.113 246.459 283.353 240.842 279.702C235.226 276.051 229.142 274.08 222.59 273.79C216.064 273.461 209.885 274.772 204.055 277.722C198.185 280.646 193.425 284.917 189.774 290.534C186.123 296.151 184.152 302.235 183.862 308.786C183.533 315.313 184.831 321.51 187.756 327.379ZM218.574 352.467C211.15 352.098 204.267 349.852 197.924 345.729C191.581 341.606 186.734 336.227 183.383 329.592C180.032 322.957 178.541 315.927 178.91 308.502C179.279 301.078 181.525 294.195 185.648 287.852C189.77 281.509 195.15 276.662 201.785 273.311C208.42 269.96 215.45 268.469 222.874 268.838C230.298 269.207 237.182 271.453 243.525 275.576C249.868 279.699 254.715 285.078 258.066 291.713C261.417 298.348 262.908 305.378 262.539 312.802C262.17 320.226 259.924 327.11 255.801 333.453C251.678 339.796 246.299 344.643 239.664 347.994C233.028 351.345 225.999 352.836 218.574 352.467ZM182.007 336.851C185.519 342.068 189.93 346.403 195.241 349.856C200.553 353.308 206.305 355.58 212.499 356.671C218.693 357.762 224.677 357.711 230.453 356.519C236.215 355.264 241.705 352.881 246.923 349.369C252.14 345.858 256.475 341.447 259.928 336.135C263.38 330.824 265.652 325.072 266.743 318.878C267.834 312.684 267.771 306.718 266.554 300.981C265.324 295.181 262.953 289.672 259.441 284.454C255.93 279.236 251.518 274.901 246.207 271.449C240.896 267.997 235.144 265.725 228.95 264.634C222.756 263.543 216.778 263.625 211.016 264.88C205.24 266.072 199.744 268.424 194.526 271.935C189.308 275.447 184.973 279.858 181.521 285.169C178.068 290.481 175.797 296.233 174.706 302.427C173.615 308.621 173.684 314.618 174.915 320.418C176.132 326.156 178.496 331.633 182.007 336.851ZM218.044 362.314C208.887 361.851 200.392 359.074 192.559 353.982C184.726 348.891 178.739 342.255 174.599 334.074C170.484 325.855 168.658 317.167 169.12 308.009C169.545 298.828 172.303 290.32 177.394 282.487C182.486 274.654 189.141 268.68 197.36 264.565C205.541 260.425 214.21 258.586 223.367 259.048C232.549 259.473 241.057 262.231 248.89 267.322C256.723 272.414 262.697 279.069 266.812 287.288C270.952 295.469 272.81 304.151 272.386 313.333C271.923 322.49 269.146 330.985 264.054 338.818C258.963 346.651 252.327 352.637 244.146 356.777C235.927 360.892 227.226 362.738 218.044 362.314ZM173.9 342.425C178.132 348.708 183.457 353.937 189.876 358.109C196.296 362.282 203.255 365.039 210.754 366.38C218.239 367.658 225.481 367.555 232.479 366.071C239.477 364.586 246.137 361.741 252.459 357.534C258.768 353.264 264.008 347.919 268.181 341.5C272.354 335.081 275.098 328.141 276.415 320.68C277.718 313.157 277.627 305.896 276.143 298.898C274.658 291.899 271.8 285.258 267.569 278.975C263.324 272.628 257.991 267.368 251.572 263.196C245.153 259.023 238.2 256.297 230.715 255.019C223.216 253.678 215.968 253.749 208.97 255.234C201.971 256.718 195.318 259.595 189.009 263.865C182.687 268.072 177.44 273.385 173.267 279.805C169.095 286.224 166.357 293.195 165.054 300.719C163.737 308.179 163.821 315.409 165.306 322.407C166.79 329.405 169.655 336.078 173.9 342.425ZM209.899 371.206C201.755 369.771 194.187 366.781 187.194 362.236C180.202 357.691 174.416 352 169.836 345.164C165.244 338.265 162.145 331.033 160.54 323.467C158.922 315.839 158.818 307.971 160.228 299.865C161.625 291.695 164.596 284.115 169.141 277.122C173.686 270.13 179.396 264.356 186.27 259.802C193.13 255.184 200.363 252.085 207.967 250.505C215.557 248.862 223.425 248.758 231.569 250.193C239.7 251.565 247.262 254.524 254.255 259.069C261.247 263.614 267.04 269.336 271.632 276.235C276.212 283.071 279.311 290.303 280.929 297.932C282.533 305.498 282.618 313.353 281.183 321.497C279.812 329.628 276.853 337.19 272.308 344.183C267.763 351.175 262.041 356.968 255.142 361.56C248.306 366.14 241.093 369.251 233.502 370.894C225.898 372.474 218.031 372.578 209.899 371.206ZM344.579 217.693L344.147 207.182L369.63 250.881L365.379 253.36L344.579 217.693ZM343.578 196.436L343.146 185.925L378.134 245.922L373.882 248.401L343.578 196.436ZM342.714 175.415L342.248 164.845L386.637 240.963L382.386 243.442L342.714 175.415ZM331.893 222.4L326.889 219.383L323.705 146.617L328.488 143.828L331.893 222.4ZM321.585 215.988L316.488 212.946L314.02 152.265L318.862 149.441L321.585 215.988ZM295.292 236.306L304.227 241.858L324.751 277.053L320.499 279.532L295.292 236.306ZM277.352 225.085L286.288 230.637L316.248 282.012L311.996 284.491L277.352 225.085ZM259.413 213.864L268.383 219.474L307.744 286.971L303.493 289.45L259.413 213.864ZM322.984 243.897L318.201 246.687L246.931 202.23L299.241 291.93L294.989 294.409L237.962 196.619L242.745 193.83L322.984 243.897ZM332.609 238.284L327.767 241.108L247.587 191.006L252.429 188.182L332.609 238.284ZM338.579 148.784L342.176 232.705L337.333 235.529L257.212 185.393L261.996 182.604L337.196 229.595L333.271 141.038L338.113 138.214L395.141 236.004L390.889 238.483L338.579 148.784ZM417.109 232.06L412.22 232.633L399.037 120.2L403.926 119.627L417.109 232.06ZM407.332 233.207L402.443 233.78L389.26 121.347L394.149 120.774L407.332 233.207ZM397.555 234.353L392.667 234.926L379.484 122.493L384.372 121.92L397.555 234.353ZM424.02 206.472L476.027 200.374L476.6 205.262L424.593 211.36L425.166 216.249L477.173 210.151L477.746 215.039L425.739 221.137L426.312 226.025L478.319 219.927L478.892 224.816L421.997 231.487L408.814 119.054L465.709 112.383L466.282 117.271L414.275 123.369L414.849 128.258L466.856 122.16L467.429 127.048L415.422 133.146L415.995 138.034L468.002 131.936L468.575 136.825L416.568 142.923L418.861 162.476L445.543 159.348L446.117 164.236L419.434 167.365L420.007 172.253L446.69 169.125L447.263 174.013L420.58 177.142L421.154 182.03L447.836 178.901L448.409 183.79L421.727 186.918L424.02 206.472ZM552.688 188.215L579.395 198.374C583.782 200.043 588.047 199.983 592.189 198.195C596.39 196.38 599.52 192.767 601.577 187.358C603.117 183.311 602.897 179.083 600.917 174.673C598.954 170.221 595.928 167.217 591.839 165.661L552.353 150.641L520.854 233.446L516.254 231.696L549.503 144.291L593.589 161.061C598.956 163.102 602.898 166.967 605.415 172.654C607.933 178.341 608.187 183.826 606.178 189.108C603.699 195.625 599.725 200.111 594.257 202.565C588.805 204.977 583.267 205.113 577.645 202.975L550.938 192.815L552.688 188.215ZM549.188 197.416L575.895 207.575C580.325 209.26 584.819 209.751 589.378 209.047C593.995 208.316 598.223 206.365 602.063 203.194C605.945 200.039 608.85 195.926 610.778 190.858C613.273 184.298 612.964 177.549 609.85 170.611C606.778 163.689 601.941 158.972 595.339 156.461L546.652 137.94L511.654 229.946L507.053 228.196L543.802 131.59L597.089 151.86C602.243 153.821 606.58 157.031 610.101 161.491C613.621 165.951 615.857 170.97 616.806 176.548C617.799 182.143 617.323 187.496 615.378 192.608C613.175 198.4 609.802 203.164 605.262 206.897C600.737 210.589 595.715 212.896 590.195 213.819C584.734 214.716 579.384 214.168 574.145 212.175L547.438 202.016L549.188 197.416ZM545.688 206.616L572.395 216.775C576.953 218.509 581.659 219.275 586.514 219.074C591.385 218.831 595.937 217.759 600.171 215.858C604.463 213.932 608.359 211.123 611.86 207.433C615.377 203.7 618.083 199.341 619.979 194.357C622.247 188.394 622.823 182.201 621.707 175.779C620.606 169.315 618.007 163.523 613.908 158.405C609.868 153.26 604.844 149.545 598.839 147.26L540.952 125.24L502.453 226.446L497.853 224.696L538.101 118.89L600.588 142.66C607.404 145.252 613.112 149.472 617.715 155.318C622.333 161.122 625.276 167.678 626.543 174.986C627.81 182.294 627.155 189.335 624.579 196.107C622.278 202.156 619.112 207.339 615.08 211.656C611.065 215.931 606.65 219.079 601.834 221.099C597.019 223.119 591.912 224.175 586.513 224.267C581.131 224.316 575.842 223.352 570.645 221.376L543.938 211.216L545.688 206.616ZM530.055 236.946L525.455 235.196L555.203 156.991L590.089 170.261C593.113 171.412 595.29 173.508 596.62 176.549C597.992 179.607 598.111 182.626 596.977 185.608C593.834 193.871 588.556 196.593 581.145 193.774L554.438 183.615L556.188 179.014L582.895 189.174C584.939 189.951 586.755 189.984 588.343 189.271C589.93 188.559 591.275 186.754 592.377 183.858C593.09 181.984 593.042 180.186 592.234 178.465C591.469 176.759 590.171 175.558 588.339 174.862L558.054 163.341L530.055 236.946ZM677.256 235.386C669.783 235.185 663.334 237.655 657.908 242.795C652.483 247.936 649.669 254.243 649.468 261.716C649.267 269.19 651.736 275.639 656.877 281.064C662.017 286.49 668.324 289.303 675.798 289.505C683.271 289.706 689.721 287.237 695.146 282.096C700.571 276.955 703.385 270.648 703.586 263.175C703.788 255.701 701.318 249.252 696.177 243.827C691.037 238.401 684.73 235.588 677.256 235.386ZM647.231 249.616C648.95 245.664 651.38 242.2 654.523 239.222C657.666 236.245 661.239 234.02 665.244 232.548C669.282 231.045 673.33 230.348 677.389 230.458C681.448 230.567 685.437 231.465 689.357 233.15C693.308 234.868 696.773 237.299 699.75 240.441C702.728 243.584 704.953 247.158 706.424 251.163C707.927 255.201 708.624 259.249 708.515 263.308C708.405 267.367 707.492 271.372 705.773 275.323C704.088 279.242 701.674 282.691 698.531 285.669C695.388 288.647 691.798 290.887 687.76 292.39C683.756 293.862 679.724 294.543 675.665 294.433C671.606 294.324 667.601 293.41 663.65 291.692C659.73 290.006 656.282 287.592 653.304 284.45C650.326 281.307 648.086 277.717 646.583 273.679C645.111 269.674 644.43 265.642 644.539 261.583C644.649 257.524 645.546 253.535 647.231 249.616ZM667.971 226.481C661.612 227.986 656.001 231.042 651.138 235.65C646.275 240.257 642.921 245.695 641.075 251.964C639.261 258.266 639.09 264.612 640.562 271.002C642.067 277.361 645.123 282.972 649.731 287.835C654.339 292.698 659.777 296.052 666.046 297.897C672.347 299.711 678.678 299.866 685.037 298.361C691.427 296.889 697.053 293.849 701.916 289.242C706.779 284.634 710.118 279.179 711.932 272.877C713.777 266.609 713.947 260.295 712.442 253.936C710.971 247.546 707.931 241.919 703.323 237.056C698.715 232.193 693.261 228.855 686.959 227.041C680.69 225.196 674.361 225.009 667.971 226.481ZM636.374 250.58C638.468 243.448 642.261 237.28 647.752 232.077C653.244 226.873 659.607 223.418 666.842 221.711C674.077 220.004 681.26 220.198 688.393 222.292C695.525 224.386 701.693 228.179 706.896 233.671C712.099 239.162 715.554 245.526 717.261 252.76C718.968 259.995 718.775 267.179 716.68 274.311C714.586 281.443 710.793 287.611 705.302 292.814C699.81 298.018 693.447 301.473 686.212 303.18C678.977 304.887 671.794 304.693 664.662 302.599C657.529 300.505 651.362 296.712 646.158 291.22C640.955 285.729 637.5 279.366 635.793 272.131C634.086 264.896 634.28 257.712 636.374 250.58ZM660.106 218.677C654.212 220.871 648.965 224.147 644.367 228.504C639.769 232.861 636.215 237.923 633.707 243.69C631.198 249.457 629.848 255.288 629.657 261.182C629.53 267.078 630.564 272.973 632.758 278.867C634.953 284.761 638.229 290.007 642.585 294.605C646.942 299.204 652.004 302.757 657.772 305.266C663.539 307.775 669.354 309.108 675.217 309.266C681.144 309.426 687.055 308.409 692.949 306.214C698.843 304.02 704.089 300.744 708.687 296.387C713.285 292.03 716.839 286.968 719.348 281.201C721.856 275.434 723.174 269.602 723.301 263.706C723.492 257.812 722.49 251.918 720.296 246.024C718.101 240.13 714.826 234.884 710.469 230.286C706.112 225.687 701.05 222.134 695.282 219.625C689.515 217.116 683.668 215.782 677.741 215.622C671.878 215.464 666 216.482 660.106 218.677ZM626.924 247.763C629.514 238.967 634.2 231.357 640.982 224.931C647.764 218.505 655.615 214.236 664.537 212.123C673.491 210.044 682.365 210.299 691.16 212.889C699.989 215.448 707.616 220.119 714.041 226.9C720.467 233.682 724.72 241.55 726.8 250.503C728.912 259.425 728.674 268.284 726.083 277.079C723.524 285.907 718.854 293.534 712.072 299.96C705.291 306.386 697.423 310.638 688.47 312.718C679.548 314.831 670.672 314.608 661.844 312.049C653.049 309.458 645.438 304.772 639.013 297.991C632.587 291.209 628.318 283.357 626.205 274.435C624.125 265.482 624.365 256.591 626.924 247.763ZM656.582 209.491C649.483 212.137 643.154 216.092 637.597 221.358C632.039 226.624 627.732 232.746 624.674 239.723C621.682 246.703 620.089 253.768 619.896 260.919C619.703 268.07 620.913 275.211 623.526 282.341C626.203 289.473 630.174 295.818 635.44 301.376C640.706 306.934 646.812 311.225 653.758 314.249C660.768 317.274 667.849 318.884 675.001 319.076C682.152 319.269 689.277 318.043 696.376 315.397C703.539 312.754 709.9 308.799 715.457 303.533C721.015 298.267 725.29 292.144 728.283 285.165C731.34 278.188 732.965 271.123 733.158 263.972C733.351 256.821 732.109 249.679 729.432 242.547C726.819 235.417 722.88 229.073 717.614 223.515C712.348 217.957 706.21 213.666 699.2 210.64C692.254 207.616 685.205 206.007 678.053 205.815C670.902 205.622 663.745 206.847 656.582 209.491ZM620.182 237.765C623.481 230.181 628.157 223.522 634.211 217.786C640.265 212.049 647.151 207.754 654.868 204.9C662.649 202.047 670.406 200.725 678.137 200.933C685.932 201.143 693.606 202.881 701.158 206.147C708.775 209.415 715.451 214.076 721.187 220.13C726.923 226.184 731.202 233.085 734.023 240.833C736.909 248.583 738.231 256.34 737.99 264.102C737.813 271.866 736.075 279.54 732.776 287.124C729.541 294.709 724.897 301.369 718.843 307.106C712.789 312.842 705.871 317.136 698.09 319.989C690.373 322.843 682.616 324.166 674.821 323.955C667.09 323.747 659.432 321.993 651.849 318.694C644.264 315.459 637.603 310.815 631.867 304.761C626.131 298.707 621.836 291.79 618.984 284.008C616.129 276.291 614.791 268.551 614.968 260.786C615.209 253.024 616.947 245.35 620.182 237.765ZM738.072 359.484L746.786 386.697C748.218 391.167 750.924 394.464 754.906 396.586C758.945 398.738 763.72 398.932 769.232 397.167C773.356 395.846 776.523 393.037 778.736 388.74C780.992 384.428 781.453 380.189 780.119 376.023L767.235 335.789L682.862 362.809L681.361 358.121L770.421 329.601L784.806 374.522C786.558 379.99 785.995 385.482 783.12 390.997C780.244 396.511 776.115 400.131 770.733 401.854C764.093 403.98 758.108 403.672 752.779 400.928C747.494 398.17 743.934 393.927 742.099 388.198L733.384 360.985L738.072 359.484ZM728.697 362.486L737.412 389.699C738.857 394.213 741.276 398.032 744.67 401.156C748.12 404.31 752.282 406.399 757.156 407.422C762.043 408.489 767.07 408.195 772.234 406.541C778.918 404.401 784.001 399.95 787.482 393.188C790.978 386.47 791.648 379.748 789.494 373.02L773.607 323.412L679.859 353.434L678.358 348.747L776.794 317.224L794.181 371.519C795.863 376.771 796.058 382.164 794.768 387.697C793.477 393.231 790.948 398.108 787.18 402.33C783.425 406.594 778.944 409.561 773.736 411.229C767.833 413.119 762.006 413.454 756.256 412.233C750.549 410.998 745.613 408.511 741.449 404.772C737.342 401.063 734.434 396.539 732.724 391.2L724.01 363.987L728.697 362.486ZM719.322 365.488L728.037 392.701C729.524 397.345 731.86 401.502 735.045 405.172C738.273 408.827 741.95 411.717 746.076 413.842C750.259 415.995 754.884 417.29 759.953 417.724C765.064 418.145 770.159 417.542 775.237 415.916C781.313 413.97 786.513 410.558 790.837 405.681C795.204 400.789 798.11 395.145 799.555 388.748C801.057 382.381 800.828 376.138 798.868 370.018L779.98 311.035L676.857 344.059L675.356 339.372L783.166 304.847L803.556 368.517C805.78 375.462 806.042 382.556 804.342 389.799C802.685 397.029 799.396 403.418 794.473 408.966C789.55 414.515 783.639 418.394 776.738 420.604C770.575 422.577 764.549 423.335 758.659 422.876C752.813 422.403 747.599 420.915 743.017 418.41C738.435 415.906 734.424 412.572 730.986 408.41C727.59 404.233 725.045 399.497 723.349 394.202L714.635 366.99L719.322 365.488ZM685.864 372.183L684.363 367.496L764.048 341.978L775.431 377.524C776.418 380.605 776.138 383.614 774.59 386.55C773.056 389.53 770.769 391.506 767.731 392.479C759.311 395.176 753.892 392.748 751.474 385.196L742.759 357.983L747.447 356.482L756.161 383.695C756.828 385.778 757.935 387.218 759.483 388.015C761.03 388.811 763.279 388.737 766.23 387.792C768.14 387.18 769.516 386.022 770.357 384.317C771.213 382.655 771.342 380.891 770.744 379.025L760.862 348.166L685.864 372.183ZM816.355 503.429L821.151 504.536L804.551 576.473L799.755 575.367L816.355 503.429ZM806.764 501.216L811.559 502.322L794.959 574.26L790.163 573.153L806.764 501.216ZM797.172 499.002L801.968 500.109L785.367 572.047L780.571 570.94L784.998 551.756L698.673 531.836L699.78 527.04L786.105 546.961L787.212 542.165L700.887 522.244L701.993 517.448L788.318 537.369L789.425 532.573L703.1 512.652L704.207 507.857L790.532 527.777L791.638 522.981L705.313 503.061L706.42 498.265L792.745 518.186L797.172 499.002ZM681.786 573.774L684.404 569.606L780.262 629.824L777.644 633.992L681.786 573.774ZM687.022 565.438L689.64 561.27L785.498 621.489L782.88 625.657L687.022 565.438ZM692.259 557.103L694.877 552.935L790.735 613.153L788.116 617.321L692.259 557.103ZM697.388 595.2L669.533 639.54L665.366 636.922L693.22 592.582L689.053 589.964L661.198 634.304L657.03 631.685L684.885 587.345L680.717 584.727L652.863 629.067L648.695 626.449L679.168 577.941L775.025 638.16L744.553 686.667L740.385 684.049L768.239 639.709L764.072 637.091L736.217 681.431L732.049 678.813L759.904 634.473L755.736 631.855L727.882 676.195L723.714 673.576L751.569 629.236L734.898 618.764L720.607 641.513L716.439 638.894L730.73 616.145L726.562 613.527L712.271 636.276L708.104 633.658L722.394 610.909L718.227 608.291L703.936 631.04L699.768 628.422L714.059 605.673L697.388 595.2ZM718.782 717.597L714.923 720.652L644.663 631.891L648.523 628.836L718.782 717.597ZM695.627 735.926L691.768 738.981L636.782 669.516L605.909 693.954L602.854 690.095L633.728 665.657L630.673 661.797L599.799 686.236L596.745 682.376L627.618 657.938L624.563 654.079L593.69 678.517L590.635 674.658L625.368 647.165L695.627 735.926ZM703.346 729.817L699.487 732.871L629.227 644.11L633.086 641.056L703.346 729.817ZM711.064 723.707L707.205 726.762L636.945 638.001L640.804 634.946L711.064 723.707ZM628.517 783L623.902 784.711L584.544 678.57L589.159 676.859L628.517 783ZM600.828 793.267L596.213 794.978L565.411 711.911L528.493 725.601L526.782 720.986L563.7 707.296L561.989 702.682L525.07 716.371L523.359 711.756L560.278 698.067L558.567 693.452L521.648 707.142L519.937 702.527L561.47 687.126L600.828 793.267ZM610.058 789.845L605.443 791.556L566.085 685.415L570.7 683.703L610.058 789.845ZM619.287 786.422L614.672 788.133L575.315 681.992L579.929 680.281L619.287 786.422ZM482.278 761.41L484.665 755.977L515.04 817.226L510.118 817.293L482.278 761.41ZM477.505 772.278L479.96 766.843L505.197 817.361L500.275 817.428L477.505 772.278ZM472.731 783.077L475.117 777.643L495.354 817.496L490.433 817.563L472.731 783.077ZM478.397 742.663L443.816 818.203L438.894 818.271L473.476 742.731L472.952 704.59L477.874 704.522L478.397 742.663ZM468.554 742.798L433.973 818.339L429.052 818.406L463.633 742.866L463.109 704.725L468.031 704.657L468.554 742.798ZM458.712 742.933L424.13 818.474L419.209 818.541L453.79 743.001L453.267 704.86L458.188 704.792L458.712 742.933ZM485.851 747.757L453.659 818.068L448.737 818.136L483.319 742.595L482.795 704.455L487.717 704.387L488.24 742.528L524.882 817.091L519.961 817.158L485.851 747.757Z" fill="black"/>
</svg>
