<svg width="1030" height="973" viewBox="0 0 1030 973" fill="none" xmlns="http://www.w3.org/2000/svg">
<path d="M298.969 525.664L312.873 596.648L283.69 602.364L281.256 589.94L198.811 606.089L201.245 618.514L175.433 623.57L157.991 566.181L174.364 562.973C169.164 560.592 164.481 557.109 160.316 552.524C156.087 547.952 153.287 542.166 151.916 535.167C150.117 525.986 150.958 517.687 154.44 510.271C157.921 502.855 163.36 496.756 170.757 491.973C178.142 487.126 186.746 483.74 196.57 481.816C206.33 479.904 215.666 479.742 224.578 481.33C233.362 482.943 240.835 486.547 246.998 492.14C253.084 497.682 257.038 505.108 258.862 514.419C260.133 520.904 260.038 527.056 258.577 532.876C257.04 538.644 254.749 543.627 251.704 547.824L272.412 543.767L269.978 531.343L298.969 525.664ZM234.059 536.879C232.927 531.1 229.779 527.283 224.615 525.427C219.451 523.572 213.113 523.38 205.6 524.852C197.895 526.361 192.027 529.077 187.995 533.001C183.963 536.924 182.425 541.326 183.381 546.206C184.022 549.48 185.436 552.271 187.621 554.576C189.742 556.894 192.225 558.341 195.072 558.917L228.493 552.371C233.449 548.399 235.304 543.236 234.059 536.879ZM261.357 450.377C255.8 470.699 240.304 477.383 214.87 470.428L179.179 460.669L175.84 472.882L150.279 465.892L160.338 406.78L227.269 425.082C229.731 425.755 232.253 425.461 234.836 424.2C237.356 422.922 238.953 421.053 239.626 418.591C240.402 415.751 240.06 413.283 238.598 411.188C237.09 409.012 234.916 407.536 232.076 406.759L196.575 397.052L194.09 406.14L168.529 399.151L177.734 343.163L252.617 363.639L255.957 351.426L284.452 359.218L268.713 416.777L253.945 412.739C258.205 417.499 261.019 423.084 262.386 429.495C263.771 435.843 263.428 442.804 261.357 450.377ZM323.302 314.992L277.037 374.498L253.715 356.366L261.486 346.37L225.767 318.6L217.996 328.595L197.076 312.33L229.053 261.606L242.535 272.088C241.238 268.427 240.827 264.212 241.302 259.444C241.726 254.635 242.775 249.98 244.45 245.481C246.113 240.89 248.069 237.148 250.318 234.255L283.171 259.797C276.457 264.275 271.575 268.476 268.522 272.402C264.667 277.361 263.543 281.791 265.151 285.693C266.706 289.555 269.809 293.293 274.458 296.907L290.341 309.257L299.98 296.86L323.302 314.992ZM404.018 309.759L341.233 345.676L326.467 319.863L337.456 313.576L295.741 240.653L284.751 246.94L271.691 224.108L320.466 189.197L328.75 203.679C329.34 197.99 331.139 192.438 334.147 187.024C337.123 181.553 341.707 177.046 347.897 173.505C356.019 168.859 364.149 166.997 372.29 167.918C380.43 168.84 387.951 172.038 394.851 177.513C401.809 182.955 407.773 190.021 412.744 198.71C417.682 207.343 420.827 216.135 422.178 225.086C423.465 233.923 422.446 242.156 419.122 249.787C415.823 257.328 410.055 263.453 401.82 268.164C396.084 271.446 390.225 273.327 384.244 273.809C378.288 274.201 372.834 273.627 367.883 272.088L378.36 290.404L389.35 284.117L404.018 309.759ZM372.597 251.866C377.708 248.942 380.315 244.736 380.418 239.25C380.521 233.764 378.672 227.699 374.871 221.054C370.972 214.238 366.519 209.55 361.51 206.988C356.502 204.425 351.839 204.379 347.523 206.848C344.626 208.505 342.436 210.738 340.952 213.546C339.436 216.298 338.861 219.115 339.228 221.995L356.138 251.557C361.488 254.979 366.974 255.082 372.597 251.866ZM502.154 208.725L506.377 237.963L427.794 249.313L423.571 220.075L440.667 217.606L427.732 128.046L410.636 130.515L406.82 104.094L469.518 88.4934L487.195 210.886L502.154 208.725ZM553.451 250.9C541.516 248.519 531.595 244.238 523.687 238.057C515.703 231.928 510.149 224.315 507.027 215.218C503.969 206.135 503.527 196.139 505.703 185.231C507.854 174.451 512.033 165.544 518.24 158.509C524.37 151.526 532.035 146.716 541.234 144.081C550.433 141.446 560.647 141.249 571.876 143.489C582.207 145.55 590.915 149.389 598.001 155.006C605.074 160.687 610.011 167.71 612.813 176.075C615.678 184.453 616.113 193.646 614.116 203.656C613.424 207.121 612.258 210.291 610.617 213.166L550.655 201.204C549.451 207.236 550.763 212.534 554.589 217.101C558.428 221.603 563.556 224.494 569.972 225.774C574.849 226.747 580.373 226.982 586.545 226.478C592.729 225.911 599.132 224.419 605.752 222.003L607.273 222.907L602.108 248.798C594.743 251.265 587.372 252.764 579.994 253.293C572.693 253.772 563.845 252.974 553.451 250.9ZM554.591 181.473L554.034 184.264L578.674 189.18L579.077 187.159C579.986 182.603 579.708 178.478 578.243 174.783C576.855 171.037 574.108 168.754 570.002 167.935C566.601 167.256 563.374 168.38 560.322 171.308C557.282 174.171 555.372 177.559 554.591 181.473ZM701.872 302.175L676.305 325.408L623.568 267.372L649.136 244.139L659.696 255.76L724.124 197.216L713.563 185.594L739.131 162.361L792.013 220.264L766.3 243.63L757.918 234.405L738.887 251.698L764.166 279.517L783.197 262.224L774.814 253L800.527 229.634L853.053 287.73L827.485 310.963L816.991 299.414L752.563 357.959L763.057 369.508L737.49 392.741L684.819 334.778L710.387 311.545L718.769 320.769L739.325 302.09L714.046 274.271L693.49 292.95L701.872 302.175ZM740.02 430.822C736.857 419.071 736.29 408.28 738.319 398.451C740.269 388.576 744.626 380.22 751.391 373.385C758.174 366.613 766.935 361.781 777.676 358.89C788.29 356.033 798.127 355.825 807.186 358.265C816.165 360.659 823.876 365.393 830.32 372.467C836.764 379.541 841.474 388.606 844.45 399.663C847.189 409.835 847.613 419.342 845.725 428.185C843.773 437.045 839.671 444.586 833.418 450.809C827.183 457.095 819.137 461.565 809.28 464.218C805.869 465.136 802.51 465.498 799.206 465.303L783.313 406.261C777.374 407.86 773.207 411.386 770.813 416.842C768.483 422.28 768.168 428.158 769.869 434.476C771.161 439.278 773.403 444.332 776.593 449.64C779.846 454.93 784.024 460.005 789.127 464.865L788.992 466.63L763.499 473.492C758.019 467.988 753.405 462.047 749.656 455.671C745.987 449.341 742.775 441.058 740.02 430.822ZM802.741 401.031L799.992 401.771L806.523 426.032L808.513 425.497C812.999 424.289 816.572 422.209 819.233 419.257C821.975 416.351 822.801 412.876 821.713 408.832C820.811 405.484 818.372 403.091 814.394 401.655C810.479 400.202 806.595 399.994 802.741 401.031ZM747.285 501.263C748.226 494.656 750.375 488.848 753.732 483.841C757.033 478.759 761.311 474.941 766.566 472.385C771.82 469.828 777.622 469.002 783.97 469.906C790.836 470.884 796.394 473.625 800.643 478.13C804.762 482.616 807.55 488.102 809.005 494.588C810.452 501.138 810.663 508.009 809.639 515.199C808.431 523.684 806.005 531.666 802.363 539.144L806.735 539.767C811.917 540.505 816.182 538.865 819.53 534.848C822.869 530.896 825.068 525.195 826.129 517.745C826.581 514.571 826.7 510.953 826.485 506.891C826.271 502.829 825.751 498.823 824.926 494.872C824.1 490.921 823.044 487.433 821.757 484.408L823.324 481.757L851.599 485.783C853.268 494.018 854.104 502.299 854.108 510.627C854.176 518.964 853.708 526.663 852.702 533.723C847.093 573.107 833.212 591.222 811.059 588.067L767.432 581.854L766.131 590.987L736.885 586.822L743.97 537.074L760.527 534.971C755.483 531.411 751.793 526.457 749.459 520.11C747.124 513.764 746.4 507.481 747.285 501.263ZM769.558 523.072C769.253 525.21 769.301 527.43 769.699 529.734C770.089 532.103 770.613 533.764 771.27 534.716L787.594 537.041C787.862 536.088 788.472 534.589 789.424 532.543C790.32 530.424 790.884 528.555 791.115 526.935C791.604 523.502 790.927 520.597 789.084 518.22C787.233 515.907 784.526 514.497 780.963 513.99C778.307 513.612 775.841 514.219 773.566 515.811C771.346 517.478 770.01 519.898 769.558 523.072ZM715.47 617.844C727.437 595.677 744.964 590.826 768.052 603.291L802.165 621.707L809.625 607.889L834.929 621.55L827.469 635.368L847.246 646.045L834.154 692.402L805.136 676.736L796.184 693.318L770.88 679.657L779.832 663.075L748.741 646.29C746.15 644.892 743.463 644.705 740.679 645.73C737.895 646.755 735.71 648.736 734.125 651.672C732.975 653.802 732.013 655.997 731.239 658.256L707.23 645.294C707.937 635.861 710.683 626.71 715.47 617.844ZM663.29 719.718L650.916 676.701L686.385 651.386L748.843 698.688L759.468 691.105L777.086 715.79L720.448 756.214L702.83 731.529L710.419 726.113L681.837 701.778L703.752 768.13L682.502 783.296L625.712 740.389L639.561 776.686L649.067 769.901L666.685 794.585L622.669 826.001L605.051 801.317L615.835 793.62L590.523 719.805L628.468 692.723L663.29 719.718ZM550.053 731.733C556.694 731.08 562.846 731.791 568.506 733.864C574.225 735.866 578.95 739.117 582.679 743.615C586.408 748.114 588.586 753.554 589.213 759.935C589.892 766.838 588.547 772.887 585.178 778.083C581.797 783.149 577.129 787.158 571.173 790.11C565.152 793.068 558.528 794.903 551.3 795.613C542.77 796.451 534.44 795.987 526.312 794.222L526.743 798.617C527.255 803.827 529.86 807.581 534.556 809.881C539.188 812.187 545.248 812.972 552.736 812.237C555.927 811.923 559.47 811.18 563.365 810.009C567.26 808.837 571.029 807.382 574.671 805.643C578.314 803.905 581.452 802.052 584.085 800.083L587.033 800.977L589.826 829.4C582.222 832.975 574.375 835.751 566.286 837.729C558.203 839.772 550.613 841.143 543.515 841.84C503.924 845.73 483.035 836.541 480.847 814.271L476.538 770.415L467.356 771.317L464.467 741.917L514.477 737.003L520.446 752.59C522.708 746.845 526.646 742.086 532.258 738.313C537.87 734.541 543.801 732.347 550.053 731.733ZM534.147 758.542C531.998 758.753 529.852 759.325 527.708 760.259C525.499 761.199 524.01 762.102 523.24 762.966L524.853 779.375C525.842 779.41 527.444 779.647 529.656 780.087C531.928 780.455 533.878 780.56 535.505 780.4C538.957 780.061 541.619 778.714 543.491 776.361C545.299 774.014 546.026 771.049 545.674 767.468C545.412 764.798 544.238 762.547 542.151 760.714C540.005 758.952 537.337 758.228 534.147 758.542ZM343.554 774.546L397.309 714.105L444.563 730.61L450.849 812.023L464.469 816.78L454.469 845.41L383.31 820.555L393.31 791.925L403.595 795.517L403.784 743.188L369.59 783.64L381.357 787.75L371.357 816.381L321.045 798.807L331.046 770.177L343.554 774.546ZM331.497 667.673C340.378 675.994 346.546 684.865 350.001 694.289C353.548 703.709 354.247 713.106 352.099 722.481C349.904 731.81 345.003 740.534 337.399 748.651C329.883 756.672 321.633 762.033 312.648 764.733C303.756 767.43 294.707 767.47 285.503 764.853C276.298 762.237 267.518 757.015 259.162 749.186C251.475 741.984 246.104 734.127 243.049 725.617C240.039 717.059 239.552 708.488 241.586 699.904C243.573 691.276 248.056 683.237 255.035 675.788C257.451 673.21 260.114 671.133 263.025 669.557L307.646 711.361C311.851 706.873 313.533 701.68 312.693 695.782C311.808 689.932 308.978 684.77 304.203 680.297C300.574 676.897 296.006 673.782 290.498 670.953C284.945 668.171 278.72 666.059 271.822 664.618L271.007 663.047L289.057 643.781C296.614 645.572 303.666 648.189 310.213 651.632C316.667 655.079 323.762 660.426 331.497 667.673ZM293.89 726.044L295.836 723.967L277.501 706.788L276.091 708.292C272.915 711.683 270.974 715.333 270.268 719.245C269.47 723.159 270.599 726.548 273.655 729.411C276.185 731.782 279.52 732.529 283.657 731.654C287.75 730.826 291.161 728.956 293.89 726.044Z" fill="#240053"/>
</svg>
